<svg xmlns="http://www.w3.org/2000/svg" viewBox="0 0 1500 1500"><defs><style>.cls-1{opacity:0.4;}.cls-2{fill:#d0d0d8;}.cls-3{fill:#b2b2b7;}.cls-4{fill:#4b4b4c;}.cls-5{fill:#202021;}.cls-6{fill:none;stroke:#97c69f;stroke-linecap:round;stroke-linejoin:round;stroke-width:50px;}</style></defs><g id="레이어_6" data-name="레이어 6"><g class="cls-1"><rect class="cls-2" x="710.45" y="736.97" width="216.65" height="639.13"/><path class="cls-2" d="M375.79,195.33h643.79a200,200,0,0,1,200,200V867a0,0,0,0,1,0,0H147.15a0,0,0,0,1,0,0V424A228.64,228.64,0,0,1,375.79,195.33Z"/><path class="cls-3" d="M308.67,195.33H418.93A161.52,161.52,0,0,1,580.46,356.86V867a0,0,0,0,1,0,0H147.15a0,0,0,0,1,0,0V356.86A161.52,161.52,0,0,1,308.67,195.33Z"/><path class="cls-4" d="M317.92,238.66h80.94A138.27,138.27,0,0,1,537.13,376.93V823.63a0,0,0,0,1,0,0H179.65a0,0,0,0,1,0,0V376.93A138.27,138.27,0,0,1,317.92,238.66Z"/><circle class="cls-5" cx="778.74" cy="383.44" r="54.16"/><circle class="cls-3" cx="778.74" cy="383.44" r="30.95"/><path class="cls-5" d="M859.69,109.37h19.89a0,0,0,0,1,0,0v260a0,0,0,0,1,0,0H828.12a0,0,0,0,1,0,0V140.93A31.56,31.56,0,0,1,859.69,109.37Z" transform="translate(207.37 -367.61) rotate(27.53)"/><rect class="cls-2" x="710.45" y="866.96" width="216.65" height="119.16"/><rect class="cls-3" x="623.79" y="866.96" width="97.49" height="509.13"/></g><rect class="cls-2" x="704.84" y="870.04" width="171.78" height="506.76"/><path class="cls-2" d="M458.21,440.58H908.53a200,200,0,0,1,200,200V973.1a0,0,0,0,1,0,0H258.21a0,0,0,0,1,0,0V640.58A200,200,0,0,1,458.21,440.58Z"/><path class="cls-3" d="M391.09,440.58h77.79A132.89,132.89,0,0,1,601.77,573.47V973.1a0,0,0,0,1,0,0H258.21a0,0,0,0,1,0,0V573.47A132.89,132.89,0,0,1,391.09,440.58Z"/><path class="cls-4" d="M393.61,474.94h64.18A109.63,109.63,0,0,1,567.41,584.57V938.75a0,0,0,0,1,0,0H284a0,0,0,0,1,0,0V584.57A109.63,109.63,0,0,1,393.61,474.94Z"/><circle class="cls-5" cx="758.98" cy="589.73" r="42.95"/><circle class="cls-3" cx="758.98" cy="589.73" r="24.54"/><path class="cls-5" d="M829.7,372.42h9.24a0,0,0,0,1,0,0V578.56a0,0,0,0,1,0,0h-40.8a0,0,0,0,1,0,0V404A31.56,31.56,0,0,1,829.7,372.42Z" transform="translate(312.53 -324.54) rotate(27.53)"/><rect class="cls-2" x="704.84" y="973.1" width="171.78" height="94.48"/><rect class="cls-3" x="636.13" y="973.1" width="77.3" height="403.69"/><polyline class="cls-6" points="1224.87 1335.93 1224.87 1021.53 1096.89 1149.51"/><line class="cls-6" x1="1224.87" y1="1021.53" x2="1352.85" y2="1149.51"/><g class="cls-1"><polyline class="cls-6" points="1224.87 1196.32 1224.87 777.49 1096.89 947.98"/><line class="cls-6" x1="1224.87" y1="777.49" x2="1352.85" y2="947.98"/></g></g></svg>