<svg xmlns="http://www.w3.org/2000/svg" viewBox="0 0 64 64">
    <path d="M 7 2 C 6.448 2 6 2.448 6 3 L 6 6 L 3 6 C 2.448 6 2 6.448 2 7 C 2 7.552 2.448 8 3 8 L 6 8 L 6 15 C 6 15.552 6.448 16 7 16 C 7.552 16 8 15.552 8 15 L 8 8 L 15 8 C 15.552 8 16 7.552 16 7 C 16 6.448 15.552 6 15 6 L 8 6 L 8 3 C 8 2.448 7.552 2 7 2 z M 57 2 C 56.448 2 56 2.448 56 3 L 56 6 L 49 6 C 48.448 6 48 6.448 48 7 C 48 7.552 48.448 8 49 8 L 56 8 L 56 15 C 56 15.552 56.448 16 57 16 C 57.552 16 58 15.552 58 15 L 58 8 L 61 8 C 61.552 8 62 7.552 62 7 C 62 6.448 61.552 6 61 6 L 58 6 L 58 3 C 58 2.448 57.552 2 57 2 z M 19 6 C 18.448 6 18 6.448 18 7 C 18 7.552 18.448 8 19 8 L 21 8 C 21.552 8 22 7.552 22 7 C 22 6.448 21.552 6 21 6 L 19 6 z M 25 6 C 24.448 6 24 6.448 24 7 C 24 7.552 24.448 8 25 8 L 27 8 C 27.552 8 28 7.552 28 7 C 28 6.448 27.552 6 27 6 L 25 6 z M 31 6 C 30.448 6 30 6.448 30 7 C 30 7.552 30.448 8 31 8 L 33 8 C 33.552 8 34 7.552 34 7 C 34 6.448 33.552 6 33 6 L 31 6 z M 37 6 C 36.448 6 36 6.448 36 7 C 36 7.552 36.448 8 37 8 L 39 8 C 39.552 8 40 7.552 40 7 C 40 6.448 39.552 6 39 6 L 37 6 z M 43 6 C 42.448 6 42 6.448 42 7 C 42 7.552 42.448 8 43 8 L 45 8 C 45.552 8 46 7.552 46 7 C 46 6.448 45.552 6 45 6 L 43 6 z M 7 18 C 6.448 18 6 18.448 6 19 L 6 21 C 6 21.552 6.448 22 7 22 C 7.552 22 8 21.552 8 21 L 8 19 C 8 18.448 7.552 18 7 18 z M 57 18 C 56.448 18 56 18.448 56 19 L 56 21 C 56 21.552 56.448 22 57 22 C 57.552 22 58 21.552 58 21 L 58 19 C 58 18.448 57.552 18 57 18 z M 7 24 C 6.448 24 6 24.448 6 25 L 6 27 C 6 27.552 6.448 28 7 28 C 7.552 28 8 27.552 8 27 L 8 25 C 8 24.448 7.552 24 7 24 z M 57 24 C 56.448 24 56 24.448 56 25 L 56 27 C 56 27.552 56.448 28 57 28 C 57.552 28 58 27.552 58 27 L 58 25 C 58 24.448 57.552 24 57 24 z M 42 26 C 41.061 26 40.163609 26.447219 39.599609 27.199219 L 37.5 30 L 27 30 C 25.346 30 24 31.346 24 33 L 24 55 C 24 56.654 25.346 58 27 58 L 61 58 C 62.654 58 64 56.654 64 55 L 64 33 C 64 31.346 62.654 30 61 30 L 56.5 30 L 54.400391 27.199219 C 53.837391 26.448219 52.939 26 52 26 L 42 26 z M 42 28 L 52 28 C 52.313 28 52.612781 28.149391 52.800781 28.400391 L 55.199219 31.599609 C 55.387219 31.851609 55.685 32 56 32 L 61 32 C 61.551 32 62 32.449 62 33 L 62 55 C 62 55.551 61.551 56 61 56 L 27 56 C 26.449 56 26 55.551 26 55 L 26 33 C 26 32.449 26.449 32 27 32 L 38 32 C 38.315 32 38.611781 31.851609 38.800781 31.599609 L 41.199219 28.400391 C 41.387219 28.149391 41.687 28 42 28 z M 7 30 C 6.448 30 6 30.448 6 31 L 6 33 C 6 33.552 6.448 34 7 34 C 7.552 34 8 33.552 8 33 L 8 31 C 8 30.448 7.552 30 7 30 z M 29 33 C 28.448 33 28 33.448 28 34 C 28 34.552 28.448 35 29 35 L 31 35 C 31.552 35 32 34.552 32 34 C 32 33.448 31.552 33 31 33 L 29 33 z M 47 34 C 42.038 34 38 38.038 38 43 C 38 47.962 42.038 52 47 52 C 51.962 52 56 47.962 56 43 C 56 38.038 51.962 34 47 34 z M 7 36 C 6.448 36 6 36.448 6 37 L 6 39 C 6 39.552 6.448 40 7 40 C 7.552 40 8 39.552 8 39 L 8 37 C 8 36.448 7.552 36 7 36 z M 47 36 C 50.86 36 54 39.14 54 43 C 54 46.86 50.86 50 47 50 C 43.14 50 40 46.86 40 43 C 40 39.14 43.14 36 47 36 z M 29 38 C 28.448 38 28 38.448 28 39 C 28 39.552 28.448 40 29 40 L 31 40 C 31.552 40 32 39.552 32 39 C 32 38.448 31.552 38 31 38 L 29 38 z M 47 38 C 46.448 38 46 38.448 46 39 C 46 39.552 46.448 40 47 40 C 48.144 40 49.172547 40.635203 49.685547 41.658203 C 49.860547 42.008203 50.213078 42.210938 50.580078 42.210938 C 50.730078 42.210938 50.883344 42.177469 51.027344 42.105469 C 51.521344 41.858469 51.720656 41.257672 51.472656 40.763672 C 50.619656 39.059672 48.906 38 47 38 z M 7 42 C 6.448 42 6 42.448 6 43 L 6 50 L 3 50 C 2.448 50 2 50.448 2 51 C 2 51.552 2.448 52 3 52 L 6 52 L 6 55 C 6 55.552 6.448 56 7 56 C 7.552 56 8 55.552 8 55 L 8 52 L 15 52 C 15.552 52 16 51.552 16 51 C 16 50.448 15.552 50 15 50 L 8 50 L 8 43 C 8 42.448 7.552 42 7 42 z M 29 43 C 28.448 43 28 43.448 28 44 C 28 44.552 28.448 45 29 45 L 31 45 C 31.552 45 32 44.552 32 44 C 32 43.448 31.552 43 31 43 L 29 43 z M 29 48 C 28.448 48 28 48.448 28 49 C 28 49.552 28.448 50 29 50 L 31 50 C 31.552 50 32 49.552 32 49 C 32 48.448 31.552 48 31 48 L 29 48 z M 19 50 C 18.448 50 18 50.448 18 51 C 18 51.552 18.448 52 19 52 L 21 52 C 21.552 52 22 51.552 22 51 C 22 50.448 21.552 50 21 50 L 19 50 z M 29 53 C 28.448 53 28 53.448 28 54 C 28 54.552 28.448 55 29 55 L 31 55 C 31.552 55 32 54.552 32 54 C 32 53.448 31.552 53 31 53 L 29 53 z"/>
</svg>